<svg xmlns="http://www.w3.org/2000/svg" viewBox="0 0 680 328" width="680" height="328"><rect width="680" height="328" fill="#0e0f0d"/><g transform="translate(59 207)"><path class="ink-s" d="M0 -100V-45A45 45 0 0 0 90 -45M90 -100V0" stroke="#ecebe4" stroke-width="18" stroke-linecap="round" stroke-linejoin="round" fill="none"/><circle class="ring" cx="0" cy="-100" r="13" fill="#0e0f0d" stroke="#ecebe4" stroke-width="8"/><path class="ink-s" d="M130 0V-100M130 -62A38 38 0 0 1 206 -62V0M206 -62A38 38 0 0 1 282 -62V0" stroke="#ecebe4" stroke-width="18" stroke-linecap="round" stroke-linejoin="round" fill="none"/><path class="ink-s" d="M412 -100V0" stroke="#ecebe4" stroke-width="18" stroke-linecap="round" stroke-linejoin="round" fill="none"/><path class="ink-s" d="M412 -50A45 45 0 1 0 412 -49.9" stroke="#ecebe4" stroke-width="18" stroke-linecap="round" stroke-linejoin="round" fill="none"/><path class="ink-s" d="M452 -100V0" stroke="#ecebe4" stroke-width="18" stroke-linecap="round" stroke-linejoin="round" fill="none"/><circle class="head" cx="452" cy="-148" r="17" fill="#d9b26a"/><path class="ink-s" d="M492 0V-100" stroke="#ecebe4" stroke-width="18" stroke-linecap="round" stroke-linejoin="round" fill="none"/><path class="gold-s branch" pathLength="1" d="M492 -52Q492 -100 542 -100H554" stroke="#d9b26a" stroke-width="18" stroke-linecap="round" stroke-linejoin="round" fill="none"/><circle class="ring" cx="562" cy="-100" r="13" fill="#0e0f0d" stroke="#ecebe4" stroke-width="8"/></g><path transform="translate(40 268)" d="M6.47 0.26L6.47 0.26Q4.47 0.26 3.1 -0.44Q1.74 -1.14 0.86 -2.31L0.86 -2.31L2.44 -3.83Q3.32 -2.77 4.31 -2.28Q5.3 -1.78 6.56 -1.78L6.56 -1.78Q8.01 -1.78 8.79 -2.44Q9.57 -3.1 9.57 -4.33L9.57 -4.33Q9.57 -5.32 9 -5.86Q8.43 -6.4 7.04 -6.64L7.04 -6.64L5.37 -6.91Q4.27 -7.08 3.52 -7.49Q2.77 -7.9 2.31 -8.46Q1.85 -9.02 1.64 -9.71Q1.43 -10.41 1.43 -11.18L1.43 -11.18Q1.43 -13.35 2.84 -14.49Q4.25 -15.62 6.71 -15.62L6.71 -15.62Q8.54 -15.62 9.82 -15.04Q11.11 -14.45 11.9 -13.4L11.9 -13.4L10.36 -11.86Q9.72 -12.63 8.85 -13.1Q7.99 -13.57 6.71 -13.57L6.71 -13.57Q5.35 -13.57 4.63 -12.99Q3.92 -12.41 3.92 -11.29L3.92 -11.29Q3.92 -10.34 4.48 -9.8Q5.04 -9.26 6.47 -9.02L6.47 -9.02L8.1 -8.73Q10.16 -8.36 11.11 -7.23Q12.06 -6.09 12.06 -4.47L12.06 -4.47Q12.06 -3.41 11.69 -2.53Q11.33 -1.65 10.62 -1.03Q9.9 -0.42 8.85 -0.08Q7.81 0.26 6.47 0.26 M25.8 0.26L25.8 0.26Q24.35 0.26 23.28 -0.27Q22.21 -0.81 21.52 -1.83Q20.83 -2.84 20.5 -4.31Q20.17 -5.79 20.17 -7.68L20.17 -7.68Q20.17 -9.55 20.5 -11.03Q20.83 -12.52 21.52 -13.53Q22.21 -14.54 23.28 -15.08Q24.35 -15.62 25.8 -15.62L25.8 -15.62Q27.25 -15.62 28.32 -15.08Q29.39 -14.54 30.08 -13.53Q30.77 -12.52 31.1 -11.03Q31.43 -9.55 31.43 -7.68L31.43 -7.68Q31.43 -5.79 31.1 -4.31Q30.77 -2.84 30.08 -1.83Q29.39 -0.81 28.32 -0.27Q27.25 0.26 25.8 0.26M25.8 -1.78L25.8 -1.78Q27.45 -1.78 28.13 -3.02Q28.81 -4.27 28.81 -6.4L28.81 -6.4L28.81 -8.98Q28.81 -11.09 28.13 -12.33Q27.45 -13.57 25.8 -13.57L25.8 -13.57Q24.15 -13.57 23.47 -12.33Q22.79 -11.09 22.79 -8.98L22.79 -8.98L22.79 -6.38Q22.79 -4.27 23.47 -3.02Q24.15 -1.78 25.8 -1.78 M42.76 0L40.29 0L40.29 -15.36L50.17 -15.36L50.17 -13.29L42.76 -13.29L42.76 -8.82L49.49 -8.82L49.49 -6.75L42.76 -6.75L42.76 0 M70.25 -13.29L65.43 -13.29L65.43 0L62.97 0L62.97 -13.29L58.15 -13.29L58.15 -15.36L70.25 -15.36L70.25 -13.29 M81.75 0L78.45 0L77.35 -15.36L79.51 -15.36L80.06 -6.42L80.3 -2.49L80.47 -2.49L82.21 -11.64L84.65 -11.64L86.39 -2.49L86.57 -2.49L86.81 -6.42L87.38 -15.36L89.45 -15.36L88.35 0L85.05 0L83.49 -8.89L83.31 -8.89L81.75 0 M108.78 0L106.16 0L105 -4.09L100.11 -4.09L98.95 0L96.44 0L100.93 -15.36L104.29 -15.36L108.78 0M104.54 -6.14L102.64 -12.87L102.47 -12.87L100.58 -6.14L104.54 -6.14 M119.49 -6.2L119.49 0L117.05 0L117.05 -15.36L122.79 -15.36Q124.99 -15.36 126.15 -14.12Q127.3 -12.89 127.3 -10.74L127.3 -10.74Q127.3 -8.98 126.44 -7.83Q125.58 -6.69 123.98 -6.42L123.98 -6.42L127.52 0L124.79 0L121.54 -6.2L119.49 -6.2M119.49 -8.18L122.44 -8.18Q124.73 -8.18 124.73 -10.27L124.73 -10.27L124.73 -11.22Q124.73 -13.31 122.44 -13.31L122.44 -13.31L119.49 -13.31L119.49 -8.18 M145.91 0L136.29 0L136.29 -15.36L145.91 -15.36L145.91 -13.29L138.76 -13.29L138.76 -8.82L145.64 -8.82L145.64 -6.75L138.76 -6.75L138.76 -2.07L145.91 -2.07L145.91 0  M184.31 0L174.69 0L174.69 -15.36L184.31 -15.36L184.31 -13.29L177.16 -13.29L177.16 -8.82L184.04 -8.82L184.04 -6.75L177.16 -6.75L177.16 -2.07L184.31 -2.07L184.31 0 M200.45 0L195.94 -11.81L195.74 -11.81L195.74 0L193.58 0L193.58 -15.36L196.75 -15.36L201.26 -3.54L201.46 -3.54L201.46 -15.36L203.62 -15.36L203.62 0L200.45 0 M220.66 0L220.66 -2.11L220.51 -2.11Q220.31 -1.65 220.03 -1.22Q219.76 -0.79 219.35 -0.46Q218.94 -0.13 218.37 0.07Q217.8 0.26 217.05 0.26L217.05 0.26Q214.65 0.26 213.44 -1.78Q212.23 -3.83 212.23 -7.57L212.23 -7.57Q212.23 -11.48 213.62 -13.55Q215.01 -15.62 217.87 -15.62L217.87 -15.62Q218.99 -15.62 219.83 -15.31Q220.68 -15 221.28 -14.49Q221.87 -13.97 222.27 -13.28Q222.66 -12.58 222.9 -11.81L222.9 -11.81L220.68 -11.07Q220.51 -11.57 220.29 -12.02Q220.07 -12.47 219.75 -12.83Q219.43 -13.18 218.98 -13.38Q218.53 -13.57 217.89 -13.57L217.89 -13.57Q216.28 -13.57 215.57 -12.33Q214.85 -11.09 214.85 -8.98L214.85 -8.98L214.85 -6.53Q214.85 -5.48 215.01 -4.6Q215.16 -3.72 215.52 -3.09Q215.89 -2.46 216.47 -2.11Q217.05 -1.76 217.89 -1.76L217.89 -1.76Q219.23 -1.76 219.94 -2.56Q220.66 -3.37 220.66 -4.62L220.66 -4.62L220.66 -6.01L217.69 -6.01L217.69 -7.85L222.9 -7.85L222.9 0L220.66 0 M241.84 0L232.16 0L232.16 -1.87L235.77 -1.87L235.77 -13.49L232.16 -13.49L232.16 -15.36L241.84 -15.36L241.84 -13.49L238.23 -13.49L238.23 -1.87L241.84 -1.87L241.84 0 M258.05 0L253.54 -11.81L253.34 -11.81L253.34 0L251.18 0L251.18 -15.36L254.35 -15.36L258.86 -3.54L259.06 -3.54L259.06 -15.36L261.22 -15.36L261.22 0L258.05 0 M280.31 0L270.69 0L270.69 -15.36L280.31 -15.36L280.31 -13.29L273.16 -13.29L273.16 -8.82L280.04 -8.82L280.04 -6.75L273.16 -6.75L273.16 -2.07L280.31 -2.07L280.31 0 M299.51 0L289.89 0L289.89 -15.36L299.51 -15.36L299.51 -13.29L292.36 -13.29L292.36 -8.82L299.24 -8.82L299.24 -6.75L292.36 -6.75L292.36 -2.07L299.51 -2.07L299.51 0 M311.49 -6.2L311.49 0L309.05 0L309.05 -15.36L314.79 -15.36Q316.99 -15.36 318.14 -14.12Q319.3 -12.89 319.3 -10.74L319.3 -10.74Q319.3 -8.98 318.44 -7.83Q317.58 -6.69 315.98 -6.42L315.98 -6.42L319.52 0L316.79 0L313.54 -6.2L311.49 -6.2M311.49 -8.18L314.44 -8.18Q316.73 -8.18 316.73 -10.27L316.73 -10.27L316.73 -11.22Q316.73 -13.31 314.44 -13.31L314.44 -13.31L311.49 -13.31L311.49 -8.18" fill="#9a9a90"/></svg>
